<?xml version="1.0" encoding="UTF-8" standalone="no"?>
<!DOCTYPE svg PUBLIC "-//W3C//DTD SVG 1.1//EN" "http://www.w3.org/Graphics/SVG/1.1/DTD/svg11.dtd">
<svg width="100%" height="100%" viewBox="0 0 91 70" version="1.1" xmlns="http://www.w3.org/2000/svg" xmlns:xlink="http://www.w3.org/1999/xlink" xml:space="preserve" xmlns:serif="http://www.serif.com/" style="fill-rule:evenodd;clip-rule:evenodd;stroke-linejoin:round;stroke-miterlimit:2;">
    <g transform="matrix(1,0,0,1,-409,-1188.23)">
        <g transform="matrix(1,0,0,5.00259,0,0)">
            <g transform="matrix(0.177145,0,0,0.0354107,409,235.258)">
                <path d="M416,448L332,448C325.4,448 320,442.6 320,436L320,396C320,389.4 325.4,384 332,384L416,384C433.7,384 448,369.7 448,352L448,160C448,142.3 433.7,128 416,128L332,128C325.4,128 320,122.6 320,116L320,76C320,69.4 325.4,64 332,64L416,64C469,64 512,107 512,160L512,352C512,405 469,448 416,448ZM369,247L201,79C186,64 160,74.5 160,96L160,192L24,192C10.7,192 0,202.7 0,216L0,312C0,325.3 10.7,336 24,336L160,336L160,432C160,453.5 186,464 201,449L369,281C378.3,271.6 378.3,256.4 369,247Z" style="fill:rgb(249,249,249);fill-rule:nonzero;"/>
            </g>
        </g>
    </g>
</svg>
